PathFileType	4	(X/Y/Z)	pose_F01_0-87.trc
DataRate	CameraRate	NumFrames	NumMarkers	Units	OrigDataRate	OrigDataStartFrame	OrigNumFrames
30	30	9	21	m	30	43	87
Frame#	Time	CHip			RHip			RKnee			RAnkle			RBigToe			RSmallToe			RHeel			LHip			LKnee			LAnkle			LBigToe			LSmallToe			LHeel			Neck			Nose			RShoulder			RElbow			RWrist			LShoulder			LElbow			LWrist			
		X1	Y1	Z1	X2	Y2	Z2	X3	Y3	Z3	X4	Y4	Z4	X5	Y5	Z5	X6	Y6	Z6	X7	Y7	Z7	X8	Y8	Z8	X9	Y9	Z9	X10	Y10	Z10	X11	Y11	Z11	X12	Y12	Z12	X13	Y13	Z13	X14	Y14	Z14	X15	Y15	Z15	X16	Y16	Z16	X17	Y17	Z17	X18	Y18	Z18	X19	Y19	Z19	X20	Y20	Z20	X21	Y21	Z21	
43	1.4333333333333333	-0.20993504810975044	1.8898743997437106	-0.6063715621439145	-0.21691357143910123	1.8892967989878262	-0.5351672786827883	-0.2249619468375246	1.7345797782130365	-0.46713447981207856	-0.24451204382368494	1.5757771772418434	-0.371946680454976	-0.21630505485240514	1.514297268009131	-0.4001633147792252	-0.22538327840407543	1.521470683585728	-0.3578279623530588	-0.24938554232108412	1.5743243799252062	-0.36697343015290945	-0.1929238223949346	1.8904710162418588	-0.6858955738790654	-0.20158246837911836	1.7344147422256133	-0.6825306281296022	-0.2233913878465761	1.5892023146239107	-0.6647902975240516	-0.1940720198640117	1.5418999393629105	-0.681601766416161	-0.1929442681946182	1.5552779130789431	-0.7141929438213733	-0.23193878068676213	1.585256870634835	-0.6521727994226616	-0.21577167835371652	2.0649321245601286	-0.6584525053880476	-0.194868018895442	2.1313376585008177	-0.6804012765593443	-0.2292307064612792	2.0741450731750457	-0.5671609081357297	-0.23811870701987564	1.9924630812132025	-0.4962357658601289	-0.21831674628340123	1.9164319111441588	-0.4642517402197093	-0.19829573775782128	2.0591221945180718	-0.7536346768557397	-0.20067291076883104	1.9722322926635456	-0.7628449132918811	-1.1304914567794948	1.809219384380549	0.159929013367502
44	1.4666666666666666	-0.20773123524901435	1.889056089859544	-0.6173362347091453	-0.2189349550882317	1.8900643996238615	-0.5505466647353232	-0.2230579197661536	1.7356937686340403	-0.4693102371109241	-0.24360460955448276	1.5747077590867535	-0.37764618309375864	-0.21765297399931982	1.5148988878240823	-0.39865165049038254	-0.22530690627831715	1.521082417191462	-0.3578784272595502	-0.2504211111409084	1.5710706806619972	-0.37012768433662907	-0.19475942349364256	1.8894787793540664	-0.6921523915316281	-0.20183934792518843	1.7363959766548644	-0.6825136175301793	-0.22471083088099741	1.5912783309498701	-0.6676769286145031	-0.19524481955248654	1.5437873776701165	-0.6768031288272501	-0.19303931468555824	1.5555169587009177	-0.7145578886612015	-0.23430043227263805	1.5879879972310922	-0.6580136286925037	-0.2167004460388395	2.0650442047749	-0.6615949534147999	-0.191089691047937	2.130692552876161	-0.6960882261768129	-0.2301763011590589	2.075530705303568	-0.5709401397471027	-0.24131733882178516	1.9929555755907615	-0.5061064553958934	-0.21564452213157662	1.9203222250450709	-0.47283688052103834	-0.20003713587120248	2.0605465510276586	-0.7599353994377671	-0.20626458009574808	1.970307633242065	-0.7614666808136884	-1.1226334841782895	1.8138728056673064	0.14284132347493728
45	1.5	-0.2074976059342147	1.8905709241976825	-0.6262025433295504	-0.2208952521395702	1.8914809113047544	-0.5573620004618769	-0.22283278853283411	1.736489261866951	-0.478741084547863	-0.2423196145198022	1.5727779877008716	-0.3834612666104495	-0.21708848589940347	1.5144406404218778	-0.3997803397193145	-0.22567265977513018	1.5218474070271746	-0.35770842842683104	-0.24919056361034425	1.5687402068635532	-0.37575268400900297	-0.1956926209789093	1.8904695446993671	-0.6955890910663545	-0.20328494120008905	1.7328702657507207	-0.6888528882052385	-0.22443935966190384	1.5896468264790367	-0.6679425269698663	-0.1931561781839623	1.542176452356691	-0.678412130479132	-0.1925736137428117	1.5537349055772454	-0.7145369045543785	-0.23385313203485067	1.582487787373804	-0.6580778160499823	-0.2164291406747921	2.065285681652279	-0.6697290275489111	-0.18812666132066352	2.1288314370503754	-0.7143703825181927	-0.23115510458420585	2.0742651266253014	-0.5734890411789274	-0.24228355689360573	1.9917575285637552	-0.5089820663232654	-0.21567137794601912	1.929287074875015	-0.47506187445125286	-0.20075557517757125	2.059188587894525	-0.7627687710733118	-0.20467081830220918	1.9734755395624795	-0.7671240341410137	-1.1194600153024146	1.8237213468493316	0.13633415884677252
46	1.5333333333333334	-0.21013515894313617	1.8896920954100964	-0.6354681649432916	-0.22180475234118407	1.8901578298893171	-0.5604603681985754	-0.21900294781415347	1.7358624343345277	-0.491962500622632	-0.23761887975090099	1.57584647851164	-0.3937041678816403	-0.21777152081553658	1.5149551452693886	-0.3991134651712487	-0.22603841327194318	1.5226123968628873	-0.3575384295941119	-0.24797402165782514	1.572641425250329	-0.3823106587391508	-0.1983261261588185	1.8914358341786182	-0.7050450621806864	-0.20793671512601464	1.732283510716461	-0.6922774594452092	-0.2248939439199112	1.591902741290426	-0.6674482066558778	-0.19302598802254528	1.5445143078891146	-0.6786316598883445	-0.192192785616148	1.5558291915602327	-0.711015746018302	-0.23618393477667843	1.5833242139566908	-0.6553088939627237	-0.21735985019409887	2.0654158852197564	-0.672881664471901	-0.1884491190561453	2.129228997004979	-0.7255279131146941	-0.23014770988693464	2.0733758749294533	-0.5787732461611635	-0.24536971896253607	1.9920598714609228	-0.5105529042593946	-0.21133410063244712	1.9409691415471393	-0.4815994765915515	-0.20168914535883942	2.060655495697738	-0.7660867474688805	-0.20868293735968585	1.9728969887530494	-0.7708788107065249	-1.1073343576511303	1.8282216796916502	0.11517417365226998
47	1.5666666666666667	-0.20984413102449453	1.8909821655804406	-0.6443644975257914	-0.22158963150398606	1.8902902264158803	-0.5692331761744921	-0.21927379111303036	1.7332410321758656	-0.5001412240749447	-0.23795307209654973	1.5719030335425068	-0.3933846505281242	-0.21845455573166972	1.5154696501168996	-0.39844659062318294	-0.22640416676875622	1.5233773866985998	-0.35736843076139274	-0.2464829404896988	1.5718365178529334	-0.38853878585255547	-0.2001830800990011	1.8923420070298018	-0.7115226511250945	-0.21272021715293216	1.7371448979974882	-0.691991455227155	-0.22689314007078865	1.5880373261975569	-0.6651698687168217	-0.1949653287518959	1.5458926100979276	-0.6770672086984663	-0.1942828669303164	1.5554296498417268	-0.7088367365470137	-0.2395036381573694	1.57647824211018	-0.6470238998597673	-0.2202570038192392	2.0641698242852966	-0.6733401057383112	-0.19177803783687508	2.128463053956291	-0.7370123196051421	-0.23122666388355617	2.070958870917131	-0.5815861787397408	-0.24565027015720103	1.9883958746659705	-0.5100300723148744	-0.20355948123394135	1.9540448894368572	-0.486712423574057	-0.20194665309995669	2.0569430332237735	-0.7659280879676099	-0.21108239515190994	1.9716185287215218	-0.7684857687885215	-0.1819525774815744	1.9265463384769266	-0.8266534411331025
48	1.6	-0.20936530454768748	1.8887469973227868	-0.652495944027445	-0.2198886689245374	1.8890103316448308	-0.5829315938991894	-0.21570346383100264	1.7316302779695638	-0.5082566847922616	-0.23686754927252374	1.572132464971373	-0.39919566236446147	-0.21421720628779103	1.515410159657945	-0.3985129378892327	-0.2256296058619055	1.5230853819812433	-0.36048053421922743	-0.24499185932157247	1.5710316104555382	-0.3947669129659601	-0.20174019373793048	1.889535362436987	-0.7173867779282351	-0.21473024585237188	1.724878311156981	-0.6889649763702462	-0.22590610192173213	1.5874640412525003	-0.6618704025807159	-0.19520912958819786	1.5440273423938715	-0.6763149867417938	-0.1939003745221543	1.5533897240114942	-0.7086293027605506	-0.23873153203122832	1.5715561413666324	-0.6428484865755332	-0.22122737058965244	2.062995414379515	-0.6756833994098435	-0.1922522898655614	2.126212162343157	-0.747715110524367	-0.2320590749938854	2.072102585991302	-0.5843930087840327	-0.24623479279701685	1.9903648208421005	-0.5125489293560203	-0.20821765638058573	1.9654864236404472	-0.47874400294446395	-0.20726919363615387	2.054140937550533	-0.7640832502773116	-0.21356356824451173	1.9688056200167203	-0.7658152172990513	-0.18146488339104183	1.9311111407543975	-0.8355843387834244
49	1.6333333333333333	-0.21311752980483356	1.8901589011107431	-0.6569557407165756	-0.2228548551007052	1.8903245481742594	-0.5928734827567866	-0.21768044132926798	1.7299858636535363	-0.514841332350976	-0.23578202644849774	1.5723618964002393	-0.4050066742007988	-0.21401468468363374	1.515112374009342	-0.4017337637085192	-0.22485504495505476	1.5227933772638869	-0.3635926376770621	-0.24350077815344612	1.5702267030581427	-0.40099504007936476	-0.20244957614229717	1.8912841161493055	-0.7206918258729911	-0.21437437943796142	1.7316505091034233	-0.6899499573152215	-0.22450199423073058	1.5843592855075292	-0.6590571222132191	-0.19232463870693484	1.5469449444783336	-0.6798878910405466	-0.1960643653994927	1.553426210777356	-0.7064918040342227	-0.23837930129197168	1.5684978245229573	-0.6346670663322594	-0.22422210575442142	2.0630244690728885	-0.6765824668676613	-0.1948427597379675	2.1217588891255836	-0.756042372709588	-0.23598542370743836	2.0723477168179785	-0.588417167725762	-0.24374977372217496	1.9955790416359622	-0.5147116428472704	-0.21319362780964415	1.9833452864908951	-0.4738873329684901	-0.21271593176949785	2.0528556228578148	-0.7626340668583862	-0.21135007522146887	1.9702271714813664	-0.7684139715272592	-0.18247489310649875	1.935208103105485	-0.8396486376744969
50	1.6666666666666667	-0.21602675956709208	1.890518326059677	-0.6664537096359981	-0.22395213795117153	1.8896144446174692	-0.5961417066355057	-0.21550466629471382	1.7303720599517634	-0.534784264982749	-0.23669790897930884	1.5744129220603227	-0.408876233812594	-0.21381216307947645	1.5148145883607391	-0.40495458952780566	-0.22408048404820405	1.5225013725465304	-0.3667047411348968	-0.24200969698531977	1.5694217956607472	-0.4072231671927694	-0.20531725948565302	1.8920206893281855	-0.7301421453458887	-0.21593543679138713	1.7279012924965813	-0.6920736246361606	-0.2249371385504269	1.584154092817451	-0.6582420412163877	-0.19239319027089818	1.5470759817456596	-0.6798708366517631	-0.1961805374659191	1.5538918008560545	-0.7065101571837038	-0.235914654363105	1.569299739616471	-0.6327523631986013	-0.2252469936318608	2.0620393221767497	-0.6797099052323532	-0.1974422971241489	2.11961610300886	-0.7651417959763529	-0.23704640988852052	2.07134757918885	-0.5917514132912972	-0.24532784395003812	1.9892849901864955	-0.5095524287123491	-0.22408938791033955	1.9898183504947695	-0.4504276191542595	-0.21793458028432655	2.0526249082027346	-0.7606617899283529	-0.2130311307423747	1.9691084351429247	-0.7740932325114582	-0.1706264067194378	1.9382330688500082	-0.8625910756925137
51	1.7	-0.21683555473117647	1.8918109731509003	-0.6699292725860231	-0.22659207549245072	1.8912685906311382	-0.6057594246532548	-0.21188668630019714	1.7298611255244567	-0.5431423013277232	-0.23798083844357926	1.5730268722673393	-0.41171309101945336	-0.21360964147531916	1.514516802712136	-0.4081754153470922	-0.22330592314135334	1.522209367829174	-0.3698168445927315	-0.2430735882357994	1.5664915250552114	-0.4100404740388352	-0.20689906632788915	1.8929945243738777	-0.7365960706151261	-0.21136028455386024	1.729638358256196	-0.6970970046396577	-0.22587988104160917	1.5875189812098964	-0.6615556804243281	-0.1891962894722527	1.547397112545932	-0.6915384246967761	-0.19350452455002556	1.553803556120571	-0.7173532042054956	-0.23704645777569783	1.573156496409747	-0.636040015340359	-0.22620711303850466	2.0620874679666037	-0.6826189083632236	-0.1995913910063958	2.118439484971731	-0.7625603700001098	-0.24000123012281951	2.0713727802592894	-0.5926957323211756	-0.2452369047731109	1.9944037584680354	-0.5102730896219837	-0.22348128062870723	2.005595309658576	-0.4360430556549804	-0.21801988082836735	2.052684009863066	-0.760713431268907	-0.2129288663796641	1.968531004848627	-0.7740334578862541	-0.17155684893074072	1.9466530646426559	-0.8807340724081744
